<?xml version="1.0" encoding="utf-8"?>
<!-- Generator: Adobe Illustrator 25.2.3, SVG Export Plug-In . SVG Version: 6.00 Build 0)  -->
<svg version="1.1" id="レイヤー_1" xmlns="http://www.w3.org/2000/svg" xmlns:xlink="http://www.w3.org/1999/xlink" x="0px"
	 y="0px" width="1126.79px" height="79.6px" viewBox="0 0 1126.79 79.6" style="enable-background:new 0 0 1126.79 79.6;"
	 xml:space="preserve">
<style type="text/css">
	.st0{fill:#FFFFFF;}
</style>
<g id="レイヤー_2_1_">
	<g id="レイヤー_1-2">
		<path class="st0" d="M0,76.6V0h0.1L41,58l-6.2-1.4L75.6,0h0.2v76.6H61.3V32.7l0.9,7.5L37.3,75.6h-0.2L11.5,40.2l2.5-6.9v43.3H0z"
			/>
		<path class="st0" d="M94.8,3h14.5v73.6H94.8V3z"/>
		<path class="st0" d="M121.3,76.6l26.2-41.2l6.8,14.6l-15,26.6H121.3z M122.3,3h18.5l48,73.6h-18.7L122.3,3z M155.3,30l15.2-27
			h17.6l-25.3,39.5L155.3,30z"/>
		<path class="st0" d="M254.9,3c7.66,0,13.76,1.55,18.3,4.65c4.54,3.1,6.807,7.717,6.8,13.85c0.145,4.047-1.031,8.031-3.35,11.35
			c-2.318,3.093-5.477,5.453-9.1,6.8c-4.204,1.564-8.665,2.327-13.15,2.25l-2.3-7.8c5.486-0.093,10.949,0.752,16.15,2.5
			c4.267,1.39,8.107,3.852,11.15,7.15c2.72,3.069,4.184,7.05,4.1,11.15c0.106,3.507-0.631,6.987-2.15,10.15
			c-1.357,2.674-3.348,4.974-5.8,6.7c-2.501,1.726-5.297,2.98-8.25,3.7c-3.107,0.773-6.298,1.159-9.5,1.15h-24.5V3H254.9z
			 M256.6,33.1c2.86,0,4.977-0.867,6.35-2.6c1.342-1.672,2.066-3.756,2.05-5.9c0.149-2.205-0.807-4.341-2.55-5.7
			c-2.016-1.36-4.421-2.027-6.85-1.9h-7.8v16.1H256.6z M257.1,63.1c1.966,0.026,3.924-0.261,5.8-0.85c1.6-0.483,3.025-1.421,4.1-2.7
			c1.032-1.325,1.563-2.972,1.5-4.65c0.127-1.801-0.529-3.568-1.8-4.85c-1.321-1.162-2.925-1.956-4.65-2.3
			c-1.953-0.437-3.949-0.655-5.95-0.65h-8.3v16H257.1z"/>
		<path class="st0" d="M298,3h14.5v59.6h34.6v14H298V3z"/>
		<path class="st0" d="M362.09,3h50.2v14h-35.7v15.7h31.6v14h-31.6v15.9h37.1v14h-51.6V3z"/>
		<path class="st0" d="M494.59,79.6l-55.8-50.4l4.3,2.4l0.3,45h-14.7V0.1h0.6l54.6,50.2l-3.2-1.4L480.39,3H495v76.6H494.59z"/>
		<path class="st0" d="M514,76.6V3h22c7.4,0,13.7,1.1,18.9,3.3c4.809,1.92,9.106,4.933,12.55,8.8c3.125,3.588,5.489,7.772,6.95,12.3
			c1.451,4.422,2.193,9.046,2.2,13.7c0.066,5.075-0.957,10.104-3,14.75c-1.864,4.246-4.588,8.06-8,11.2
			c-3.428,3.12-7.438,5.532-11.8,7.1c-4.552,1.647-9.359,2.477-14.2,2.45H514z M528.5,62.6h8.6c3.389,0.043,6.763-0.446,10-1.45
			c2.844-0.878,5.481-2.324,7.75-4.25c2.199-1.903,3.913-4.303,5-7c1.219-3.103,1.814-6.417,1.75-9.75c0-4.8-0.783-8.717-2.35-11.75
			c-1.357-2.756-3.344-5.154-5.8-7c-2.114-1.58-4.505-2.75-7.05-3.45c-1.984-0.587-4.033-0.923-6.1-1h-11.8L528.5,62.6z"/>
		<path class="st0" d="M623.59,76.6V0h0.1l40.9,58l-6.2-1.4L699.19,0h0.2v76.6h-14.5V32.7l0.9,7.5l-24.9,35.4h-0.2l-25.6-35.4
			l2.5-6.9v43.3H623.59z"/>
		<path class="st0" d="M713.89,39.9c-0.023-4.947,0.964-9.847,2.9-14.4c1.912-4.467,4.643-8.536,8.05-12
			c3.416-3.505,7.473-6.323,11.95-8.3c9.288-4,19.812-4,29.1,0c4.497,1.973,8.584,4.771,12.05,8.25
			c3.474,3.459,6.257,7.549,8.2,12.05c1.988,4.54,3.01,9.444,3,14.4c0.023,5.022-0.999,9.994-3,14.6
			c-1.921,4.498-4.707,8.575-8.2,12c-3.478,3.4-7.566,6.114-12.05,8c-9.316,3.861-19.784,3.861-29.1,0
			c-9.013-3.813-16.187-10.987-20-20C714.841,49.881,713.854,44.913,713.89,39.9z M728.89,39.9
			c-0.061,6.209,2.328,12.191,6.65,16.65c4.269,4.445,10.187,6.925,16.35,6.85c5.999,0.057,11.741-2.432,15.8-6.85
			c4.169-4.537,6.456-10.489,6.4-16.65c0.029-3.184-0.565-6.344-1.75-9.3c-1.114-2.795-2.742-5.355-4.8-7.55
			c-2.013-2.154-4.447-3.873-7.15-5.05c-5.691-2.4-12.109-2.4-17.8,0c-2.713,1.186-5.161,2.903-7.2,5.05
			c-2.071,2.184-3.701,4.748-4.8,7.55C729.441,33.565,728.864,36.72,728.89,39.9z"/>
		<path class="st0" d="M803.59,76.6V3h22c7.4,0,13.7,1.1,18.9,3.3c4.795,1.925,9.078,4.938,12.51,8.8c3.139,3.586,5.521,7.77,7,12.3
			c1.451,4.422,2.193,9.046,2.2,13.7c0.066,5.075-0.957,10.104-3,14.75c-1.867,4.244-4.591,8.057-8,11.2
			c-3.428,3.12-7.438,5.532-11.8,7.1c-4.552,1.646-9.359,2.476-14.2,2.45H803.59z M818.09,62.6h8.6c3.389,0.043,6.763-0.446,10-1.45
			c2.843-0.881,5.479-2.327,7.75-4.25c2.196-1.906,3.909-4.305,5-7c1.219-3.103,1.814-6.417,1.75-9.75c0-4.8-0.783-8.717-2.35-11.75
			c-1.361-2.754-3.347-5.151-5.8-7c-2.099-1.574-4.473-2.744-7-3.45c-1.984-0.587-4.033-0.923-6.1-1h-11.8L818.09,62.6z"/>
		<path class="st0" d="M880.69,3h50.2v14h-35.7v15.7h31.6v14h-31.6v15.9h37.1v14h-51.6V3z"/>
		<path class="st0" d="M979.79,3h14.5v73.6h-14.5V3z"/>
		<path class="st0" d="M1023.69,32.9l1.1,7.8l-0.2-0.7c1.547-2.748,3.788-5.041,6.5-6.65c3.132-1.786,6.697-2.668,10.3-2.55
			c3.785-0.122,7.478,1.181,10.35,3.65c2.739,2.371,4.297,5.827,4.26,9.45v32.7h-14V49.1c0.014-1.679-0.531-3.315-1.55-4.65
			c-0.967-1.173-2.583-1.757-4.85-1.75c-2.064-0.025-4.062,0.724-5.6,2.1c-1.703,1.551-2.977,3.514-3.7,5.7
			c-0.912,2.67-1.352,5.479-1.3,8.3v17.8h-14V32.9H1023.69z"/>
		<path class="st0" d="M1107.49,72.7c-2.176,1.657-4.632,2.91-7.25,3.7c-2.76,0.909-5.645,1.381-8.55,1.4
			c-4.487,0.098-8.937-0.843-13-2.75c-3.584-1.726-6.577-4.475-8.6-7.9c-2.112-3.801-3.149-8.105-3-12.45
			c-0.132-4.382,1.015-8.708,3.3-12.45c2.114-3.356,5.105-6.07,8.65-7.85c3.482-1.781,7.339-2.707,11.25-2.7
			c3.484-0.074,6.954,0.468,10.25,1.6c2.706,0.962,5.226,2.382,7.45,4.2l-6.8,9c-1.2-0.885-2.49-1.639-3.85-2.25
			c-1.808-0.804-3.772-1.197-5.75-1.15c-1.874-0.018-3.713,0.503-5.3,1.5c-1.607,1.007-2.918,2.422-3.8,4.1
			c-0.965,1.85-1.447,3.914-1.4,6c-0.016,2.063,0.501,4.095,1.5,5.9c0.967,1.77,2.403,3.241,4.15,4.25
			c1.906,1.068,4.065,1.604,6.25,1.55c1.442,0.012,2.877-0.207,4.25-0.65c1.226-0.393,2.364-1.021,3.35-1.85L1107.49,72.7z"/>
		<path class="st0" d="M1114.84,64.2c1.324-1.333,3.121-2.088,5-2.1c1.796,0.056,3.5,0.809,4.75,2.1
			c1.469,1.325,2.29,3.222,2.25,5.2c0.087,2.001-0.741,3.933-2.25,5.25c-1.289,1.213-2.98,1.908-4.75,1.95
			c-1.852,0-3.637-0.696-5-1.95c-1.509-1.317-2.337-3.249-2.25-5.25C1112.55,67.422,1113.371,65.525,1114.84,64.2z"/>
	</g>
</g>
</svg>
